<?xml version="1.0" encoding="utf-8"?>
<!-- Generator: Adobe Illustrator 21.0.0, SVG Export Plug-In . SVG Version: 6.00 Build 0)  -->
<svg version="1.1" id="Layer_1" xmlns="http://www.w3.org/2000/svg" xmlns:xlink="http://www.w3.org/1999/xlink" x="0px" y="0px"
	 viewBox="0 0 100 100" style="enable-background:new 0 0 100 100;" xml:space="preserve">
<style type="text/css">
	.st0{fill:#FFFFFF;}
</style>
<g id="Google_x2B__2_">
	<path class="st0" d="M32.8,43v12.1c0,0,11.6,0,16.4,0c-2.6,7.8-6.7,12.1-16.4,12.1c-10,0-17.8-8.1-17.8-18.1s7.8-18.1,17.8-18.1
		c5.2,0,8.8,1.9,11.9,4.5c2.6-2.6,2.4-2.9,8.6-8.8c-5.5-5-12.6-7.8-20.4-7.8C16,19,2.4,32.6,2.4,49.4S16,79.8,32.8,79.8
		C58,79.8,64.2,58,62,43.2L32.8,43L32.8,43z"/>
	<polygon class="st0" points="87.7,43.5 87.7,33 80.3,33 80.3,43.5 69.4,43.5 69.4,51.1 80.3,51.1 80.3,62 87.7,62 87.7,51.1 
		98.4,51.1 98.4,43.5 	"/>
</g>
</svg>
