<?xml version="1.0" encoding="utf-8"?>
<!-- Generator: Adobe Illustrator 21.0.0, SVG Export Plug-In . SVG Version: 6.00 Build 0)  -->
<svg version="1.1" id="Layer_1" xmlns="http://www.w3.org/2000/svg" xmlns:xlink="http://www.w3.org/1999/xlink" x="0px" y="0px"
	 viewBox="0 0 100 100" style="enable-background:new 0 0 100 100;" xml:space="preserve">
<style type="text/css">
	.st0{fill:#FFFFFF;}
</style>
<path id="Vimeo_3_" class="st0" d="M82.6,8.3c-13.2-0.4-22.1,6.9-26.7,21.8c2.4-1,4.7-1.5,7-1.5c4.8,0,6.9,2.6,6.4,8
	c-0.3,3.2-2.4,7.9-6.4,14.1C58.9,56.9,56,60,54,60c-2.5,0-4.9-4.7-7-14.3c-0.7-2.8-2-9.9-3.8-21.4C41.5,13.6,36.9,8.7,29.6,9.4
	c-3.1,0.3-7.8,3.1-14,8.4c-4.5,4.1-9.1,8.1-13.8,12.2l4.5,5.7c4.3-2.9,6.7-4.4,7.4-4.4c3.3,0,6.3,5,9.1,15.1
	c2.5,9.2,5.1,18.5,7.6,27.7c3.8,10.1,8.5,15.1,14,15.1c8.9,0,19.8-8.3,32.7-24.8C89.6,48.6,96,36.1,96.4,27
	C97,14.8,92.4,8.6,82.6,8.3z"/>
</svg>
