<?xml version="1.0" encoding="utf-8"?>
<!-- Generator: Adobe Illustrator 21.0.0, SVG Export Plug-In . SVG Version: 6.00 Build 0)  -->
<svg version="1.1" id="Layer_1" xmlns="http://www.w3.org/2000/svg" xmlns:xlink="http://www.w3.org/1999/xlink" x="0px" y="0px"
	 viewBox="0 0 100 100" style="enable-background:new 0 0 100 100;" xml:space="preserve">
<style type="text/css">
	.st0{fill:#FFFFFF;}
</style>
<path id="Facebook_2_" class="st0" d="M96.3,90.8c0,2.8-2.3,5-5,5H67.8V60.3h12l1.8-13.8H67.8v-8.8c0-4,1-6.8,6.8-6.8h7.3V18.6
	c-1.2-0.2-5.5-0.5-10.8-0.5c-10.5,0-17.7,6.5-17.7,18.2v10.2h-12v13.8h12v35.5h-44c-2.7,0-5-2.3-5-5V9.1c0-2.7,2.3-5,5-5h81.8
	c2.7,0,5,2.3,5,5L96.3,90.8L96.3,90.8z"/>
</svg>
