<?xml version="1.0" encoding="utf-8"?>
<!-- Generator: Adobe Illustrator 21.0.0, SVG Export Plug-In . SVG Version: 6.00 Build 0)  -->
<svg version="1.1" id="Layer_1" xmlns="http://www.w3.org/2000/svg" xmlns:xlink="http://www.w3.org/1999/xlink" x="0px" y="0px"
	 viewBox="0 0 100 100" style="enable-background:new 0 0 100 100;" xml:space="preserve">
<style type="text/css">
	.st0{fill:#FFFFFF;}
</style>
<path id="Instagram_3_" class="st0" d="M85,4.7H15.3c-6,0-11,4.8-11,10.7v70c0,6,5,10.8,11,10.8H85c6,0,11-4.8,11-10.8v-70
	C95.8,9.5,91,4.7,85,4.7z M70,19c0-1.5,1.2-2.7,2.8-2.7h8.5c1.5,0,2.8,1.2,2.8,2.7v8.5c0,1.5-1.2,2.7-2.8,2.7h-8.5
	c-1.5,0-2.8-1.2-2.8-2.7V19z M50,33c9.8,0,17.8,7.7,17.8,17.5S59.8,68,50,68s-17.5-7.8-17.5-17.5C32.5,41,40.3,33,50,33z M87.3,85
	c0,1.5-1.2,2.7-2.8,2.7H15.8c-1.5,0-2.7-1.2-2.7-2.7V42h11.5c-1.5,2.3-2,6.2-2,8.8c0,15.2,12.5,27.8,28,27.8s28-12.5,28-27.8
	c0-2.5-0.2-6.5-2.3-8.8h11.5v43H87.3z"/>
</svg>
