<?xml version="1.0" encoding="utf-8"?>
<!-- Generator: Adobe Illustrator 21.0.0, SVG Export Plug-In . SVG Version: 6.00 Build 0)  -->
<svg version="1.1" id="Layer_1" xmlns="http://www.w3.org/2000/svg" xmlns:xlink="http://www.w3.org/1999/xlink" x="0px" y="0px"
	 viewBox="0 0 100 100" style="enable-background:new 0 0 100 100;" xml:space="preserve">
<style type="text/css">
	.st0{fill:#FFFFFF;}
</style>
<path id="Twitter_3_" class="st0" d="M93.6,12.7c-3.8,2.3-7.8,4-12.2,4.8c-3.5-3.8-8.5-6.2-14-6.2C56.8,11.3,48.1,20,48.1,31
	c0,1.5,0.2,3,0.5,4.5c-16-0.7-30-8.8-39.5-20.5c-1.8,3-2.5,6.2-2.5,10c0,6.8,3.5,12.7,8.5,16.5c-3.2,0-6-1-8.8-2.5v0.2
	c0,9.5,6.5,17.5,15.5,19.3c-1.5,0.5-3.2,0.7-5,0.7c-1.2,0-2.5,0-3.5-0.2c2.5,7.7,9.5,13.5,18,13.8c-6.5,5.2-14.8,8.5-23.8,8.5
	c-1.5,0-3,0-4.5-0.2c8.5,5.5,18.5,8.8,29.5,8.8c35.3,0,54.7-30,54.7-56c0-0.7,0-1.8,0-2.5c3.8-2.7,7-6.2,9.5-10.2
	c-3.5,1.5-7.3,2.7-11,3C89.1,21,92.1,17.2,93.6,12.7z"/>
</svg>
